<svg width="25" height="20" viewBox="0 0 25 20" fill="none" xmlns="http://www.w3.org/2000/svg">
<path d="M16.5 14V1H1.5V14H16.5ZM16.5 14H23.5V9L20.5 6H16.5V14ZM8.5 16.5C8.5 17.8807 7.38071 19 6 19C4.61929 19 3.5 17.8807 3.5 16.5C3.5 15.1193 4.61929 14 6 14C7.38071 14 8.5 15.1193 8.5 16.5ZM21.5 16.5C21.5 17.8807 20.3807 19 19 19C17.6193 19 16.5 17.8807 16.5 16.5C16.5 15.1193 17.6193 14 19 14C20.3807 14 21.5 15.1193 21.5 16.5Z" stroke="#7F56D9" stroke-width="2" stroke-linecap="round" stroke-linejoin="round"/>
</svg>
