<svg width="23" height="22" viewBox="0 0 23 22" fill="none" xmlns="http://www.w3.org/2000/svg">
<path d="M16.5 2C16.7626 1.73735 17.0744 1.52901 17.4176 1.38687C17.7608 1.24473 18.1286 1.17157 18.5 1.17157C18.8714 1.17157 19.2392 1.24473 19.5824 1.38687C19.9256 1.52901 20.2374 1.73735 20.5 2C20.7626 2.26264 20.971 2.57444 21.1131 2.9176C21.2553 3.26077 21.3284 3.62856 21.3284 4C21.3284 4.37143 21.2553 4.73923 21.1131 5.08239C20.971 5.42555 20.7626 5.73735 20.5 6L7 19.5L1.5 21L3 15.5L16.5 2Z" stroke="#7F56D9" stroke-width="2" stroke-linecap="round" stroke-linejoin="round"/>
</svg>
